<svg width="32" height="32" viewBox="0 0 32 32" fill="none" xmlns="http://www.w3.org/2000/svg">
<path d="M2 28.5C2 28.8978 2.15804 29.2794 2.43934 29.5607C2.72064 29.842 3.10218 30 3.5 30H28.5C28.8978 30 29.2794 29.842 29.5607 29.5607C29.842 29.2794 30 28.8978 30 28.5V12H2V28.5Z" fill="#404040"/>
<path d="M30 5.48562C29.9998 5.28939 29.9607 5.09513 29.885 4.91406C29.8094 4.73298 29.6987 4.56867 29.5592 4.43057C29.4198 4.29248 29.2544 4.18334 29.0726 4.10944C28.8909 4.03555 28.6962 3.99835 28.5 4H25.005V2H22.005V4H9.995V2H6.995V4H3.5C3.30377 3.99835 3.10915 4.03555 2.92735 4.10944C2.74556 4.18334 2.58018 4.29248 2.44075 4.43057C2.30132 4.56867 2.1906 4.73298 2.11495 4.91406C2.03931 5.09513 2.00024 5.28939 2 5.48562V9H30V5.48562Z" fill="#404040"/>
</svg>
