<svg width="32" height="32" viewBox="0 0 32 32" fill="none" xmlns="http://www.w3.org/2000/svg">
<path d="M16 3C7.71628 3 1.00003 9.78438 1.00003 18.16C0.992191 21.8584 2.33249 25.4329 4.77003 28.2144C4.84378 28.2956 4.91066 28.3769 4.98441 28.4513C5.57503 29 5.75441 29 6.22316 29C6.69191 29 7.00003 29 7.46878 28.445C9.50003 26.04 12.625 25 16 25C19.375 25 22.5044 26.0444 24.5313 28.445C25 29 25.3013 29 25.7769 29C26.2525 29 26.4832 29 27.0157 28.4513C27.0919 28.3731 27.1563 28.2956 27.23 28.2144C29.6676 25.4329 31.0079 21.8584 31 18.16C31 9.78438 24.2838 3 16 3ZM15 7H17V11H15V7ZM9.00003 19H5.00003V17H9.00003V19ZM10.3432 13.7575L7.51503 10.9288L8.92878 9.515L11.7575 12.3431L10.3432 13.7575ZM17.4125 19.2125C17.2911 19.3808 17.1434 19.5285 16.975 19.65C16.5687 19.9335 16.0669 20.0453 15.5786 19.9611C15.0903 19.8769 14.655 19.6036 14.367 19.2004C14.079 18.7972 13.9616 18.2967 14.0404 17.8075C14.1191 17.3184 14.3876 16.88 14.7875 16.5875L20 14L17.4125 19.2125ZM20.2425 12.3431L23.0713 9.515L24.485 10.9288L21.6569 13.7575L20.2425 12.3431ZM27 19H23V17H27V19Z" fill="#404040"/>
</svg>
