<svg width="68" height="46" viewBox="0 0 68 46" fill="none" xmlns="http://www.w3.org/2000/svg">
<path d="M66.625 18.5C66.2031 17.7969 62.0392 15.9983 62.0392 15.9983C62.7634 15.6242 63.2584 15.5469 63.2584 14C63.2584 12.3125 63.25 11.75 62.125 11.75H58.3084C58.293 11.7163 58.2761 11.6811 58.2606 11.6459C55.7969 6.26562 55.4664 4.90578 51.7919 3.07484C46.863 0.62375 37.6225 0.5 34 0.5C30.3775 0.5 21.137 0.62375 16.2123 3.07484C12.5336 4.90297 12.625 5.84375 9.74359 11.6459C9.74359 11.6614 9.71406 11.7022 9.68734 11.75H5.86656C4.75 11.75 4.74156 12.3125 4.74156 14C4.74156 15.5469 5.23656 15.6242 5.96078 15.9983C5.96078 15.9983 1.9375 17.9375 1.375 18.5C0.8125 19.0625 0.25 23 0.25 29.75C0.25 36.5 0.8125 43.25 0.8125 43.25H2.49156C2.49156 45.2188 2.78125 45.5 3.625 45.5H14.875C15.7188 45.5 16 45.2188 16 43.25H52C52 45.2188 52.2812 45.5 53.125 45.5H64.6562C65.2188 45.5 65.5 45.0781 65.5 43.25H67.1875C67.1875 43.25 67.75 36.3594 67.75 29.75C67.75 23.1406 67.0469 19.2031 66.625 18.5ZM15.6147 24.8197C13.0535 25.0997 10.4792 25.2433 7.90281 25.25C5.03125 25.25 4.93281 25.4342 4.73031 23.6413C4.65413 22.8206 4.67822 21.9937 4.80203 21.1789L4.89062 20.75H5.3125C7 20.75 8.58484 20.8217 11.5773 21.7034C13.0994 22.1601 14.5309 22.8766 15.8088 23.8212C16.4219 24.2656 16.5625 24.6875 16.5625 24.6875L15.6147 24.8197ZM50.3716 34.9447L49.75 36.5H18.25C18.25 36.5 18.3048 36.4142 17.5469 34.9278C16.9844 33.8281 17.6875 33.125 18.7998 32.7256C20.9542 31.9494 27.25 29.75 34 29.75C40.75 29.75 47.1709 31.6456 49.2578 32.7256C50.0312 33.125 50.9917 33.4062 50.3716 34.9531V34.9447ZM14.2309 15.7452C13.7767 15.7714 13.3214 15.7747 12.8669 15.755C13.2339 15.1025 13.4378 14.3755 13.7964 13.6161C14.9214 11.2255 16.2081 8.51984 18.4989 7.37937C21.8092 5.73125 28.6703 4.98875 34 4.98875C39.3297 4.98875 46.1908 5.72562 49.5011 7.37937C51.7919 8.51984 53.073 11.2269 54.2036 13.6161C54.565 14.3825 54.7661 15.1152 55.143 15.7719C54.8617 15.7873 54.5383 15.7719 53.7663 15.7452H14.2309ZM63.1291 23.6356C62.8281 25.3906 63.1094 25.25 60.0972 25.25C57.5208 25.2433 54.9465 25.0997 52.3853 24.8197C51.9845 24.748 51.8706 24.0716 52.1912 23.8212C53.4626 22.8661 54.8961 22.1487 56.4227 21.7034C59.4152 20.8217 61.0998 20.7036 62.7634 20.7627C62.8752 20.7669 62.9814 20.8124 63.0616 20.8903C63.1418 20.9681 63.1904 21.073 63.198 21.1845C63.2775 22.0031 63.2543 22.8284 63.1291 23.6413V23.6356Z" fill="#F8CD57"/>
</svg>
