<svg width="64" height="59" viewBox="0 0 64 59" fill="none" xmlns="http://www.w3.org/2000/svg">
<path d="M2.67969 10.625H56.75V3.24503C56.75 2.9121 56.6762 2.58331 56.5337 2.28238C56.3913 1.98145 56.1839 1.71587 55.9264 1.50481C55.6689 1.29374 55.3678 1.14244 55.0448 1.06183C54.7218 0.981213 54.3849 0.973289 54.0584 1.03863L2.30844 9.54363C1.92309 9.62034 1.56455 9.79662 1.26849 10.0549C0.972431 10.3132 0.749175 10.6446 0.620938 11.016C1.27635 10.7568 1.97491 10.6242 2.67969 10.625V10.625ZM61.1797 14H2.67969C2.08295 14 1.51065 14.2371 1.0887 14.659C0.66674 15.081 0.429688 15.6533 0.429688 16.25V56.75C0.429688 57.3468 0.66674 57.9191 1.0887 58.341C1.51065 58.763 2.08295 59 2.67969 59H61.1797C61.7764 59 62.3487 58.763 62.7707 58.341C63.1926 57.9191 63.4297 57.3468 63.4297 56.75V16.25C63.4297 15.6533 63.1926 15.081 62.7707 14.659C62.3487 14.2371 61.7764 14 61.1797 14ZM47.75 41C46.86 41 45.99 40.7361 45.2499 40.2416C44.5099 39.7472 43.9331 39.0444 43.5925 38.2221C43.2519 37.3998 43.1628 36.495 43.3365 35.6221C43.5101 34.7492 43.9387 33.9474 44.568 33.3181C45.1974 32.6887 45.9992 32.2601 46.8721 32.0865C47.745 31.9129 48.6498 32.002 49.4721 32.3426C50.2943 32.6832 50.9971 33.2599 51.4916 34C51.9861 34.74 52.25 35.61 52.25 36.5C52.25 37.6935 51.7759 38.8381 50.932 39.682C50.0881 40.5259 48.9435 41 47.75 41Z" fill="#F8CD57"/>
</svg>
