<svg width="66" height="64" viewBox="0 0 66 64" fill="none" xmlns="http://www.w3.org/2000/svg">
<path d="M52.7311 0.5H34.125L45.9642 16.2866L52.7311 0.5ZM13.2689 0.5L20.0358 16.2866L31.875 0.5H13.2689ZM33 6.50047L24 18.5H42L33 6.50047ZM56.4773 3.18031L49.9116 18.5H65.625L56.4773 3.18031ZM9.52266 3.18031L0.234375 18.5H16.0884L9.52266 3.18031ZM17.6269 23H0.375L31.7063 63.5H31.7808L17.6269 23ZM48.3731 23L34.2192 63.5H34.2938L65.625 23H48.3731ZM43.3205 23H22.6795L33 52.25L43.3205 23Z" fill="#F8CD57"/>
</svg>
